<svg aria-hidden="true" style="position: absolute; width: 0; height: 0; overflow: hidden;" version="1.1" xmlns="http://www.w3.org/2000/svg" xmlns:xlink="http://www.w3.org/1999/xlink">
<defs>
<symbol id="icon-heart" viewBox="0 0 21 19">
<path d="M3.36713 10.8677L10.2666 17.4267C10.5097 17.6579 10.6313 17.7735 10.7753 17.8011C10.8376 17.8131 10.9016 17.8131 10.9639 17.8011C11.1078 17.7735 11.2294 17.6579 11.4726 17.4267L18.372 10.8677C20.2866 9.04751 20.5198 6.07619 18.9125 3.97967L18.5751 3.53962C16.6367 1.01133 12.7095 1.43196 11.3506 4.31341C11.1588 4.72004 10.5803 4.72004 10.3886 4.31341C9.02963 1.43196 5.10239 1.01133 3.16405 3.53962L2.82668 3.97967C1.21936 6.07619 1.4525 9.04751 3.36713 10.8677Z" stroke="#2D2A54" stroke-width="2"/>
</symbol>
<symbol id="icon-plus" viewBox="0 0 448 512">
<path d="M256 80c0-17.7-14.3-32-32-32s-32 14.3-32 32V224H48c-17.7 0-32 14.3-32 32s14.3 32 32 32H192V432c0 17.7 14.3 32 32 32s32-14.3 32-32V288H400c17.7 0 32-14.3 32-32s-14.3-32-32-32H256V80z"/>
</symbol>
<symbol id='icon-search' viewBox="0 0 18 18">
<path fill-rule="evenodd" clip-rule="evenodd" d="M11.9732 11H12.7518L17.67 16L16.2014 17.49L11.2734 12.5V11.71L11.0073 11.43C9.88365 12.41 8.42495 13 6.83811 13C3.29977 13 0.431641 10.09 0.431641 6.5C0.431641 2.91 3.29977 0 6.83811 0C10.3765 0 13.2446 2.91 13.2446 6.5C13.2446 8.11 12.6631 9.59 11.6972 10.73L11.9732 11ZM2.40288 6.5C2.40288 8.99 4.38396 11 6.83813 11C9.2923 11 11.2734 8.99 11.2734 6.5C11.2734 4.01 9.2923 2 6.83813 2C4.38396 2 2.40288 4.01 2.40288 6.5Z" fill="#ABABCB"/>
</symbol>
<symbol id='icon-sun' viewBox="0 0 38 38">
<path d="M9.08749 6.67716L8.43719 6.02419C7.7869 5.37122 6.73642 5.38796 6.1028 6.02419L6.08612 6.04093C5.43583 6.6939 5.43583 7.74869 6.08612 8.38492L6.73642 9.03789C7.38671 9.69086 8.42052 9.69086 9.07081 9.03789L9.08749 9.02114C9.73778 8.38492 9.73778 7.31338 9.08749 6.67716V6.67716ZM4.01852 17.3256H2.31774C1.40066 17.3256 0.666992 18.0622 0.666992 18.9831V18.9998C0.666992 19.9207 1.40066 20.6574 2.31774 20.6574H4.00184C4.9356 20.6741 5.66927 19.9374 5.66927 19.0166V18.9998C5.66927 18.0622 4.9356 17.3256 4.01852 17.3256ZM19.0253 0.666504H19.0087C18.0749 0.666504 17.3412 1.40319 17.3412 2.32404V3.93134C17.3412 4.8522 18.0749 5.58888 18.992 5.58888H19.0087C19.9424 5.60562 20.6761 4.86894 20.6761 3.94809V2.32404C20.6761 1.40319 19.9424 0.666504 19.0253 0.666504V0.666504ZM31.9312 6.04093C31.2809 5.38796 30.2304 5.38796 29.5801 6.02419L28.9298 6.67716C28.2795 7.33013 28.2795 8.38492 28.9298 9.02114L28.9465 9.03789C29.5968 9.69086 30.6473 9.69086 31.2809 9.03789L31.9312 8.38492C32.5815 7.73195 32.5815 6.6939 31.9312 6.04093V6.04093ZM28.9132 31.3225L29.5635 31.9755C30.2138 32.6284 31.2642 32.6284 31.9145 31.9755C32.5648 31.3225 32.5648 30.2677 31.9145 29.6148L31.2642 28.9618C30.6139 28.3088 29.5635 28.3256 28.9298 28.9618C28.2629 29.6315 28.2629 30.6695 28.9132 31.3225ZM32.3481 18.9831V18.9998C32.3481 19.9207 33.0817 20.6574 33.9988 20.6574H35.6829C36.6 20.6574 37.3337 19.9207 37.3337 18.9998V18.9831C37.3337 18.0622 36.6 17.3256 35.6829 17.3256H33.9988C33.0817 17.3256 32.3481 18.0622 32.3481 18.9831ZM19.0087 8.95417C13.4895 8.95417 9.00412 13.458 9.00412 18.9998C9.00412 24.5417 13.4895 29.0455 19.0087 29.0455C24.5278 29.0455 29.0132 24.5417 29.0132 18.9998C29.0132 13.458 24.5278 8.95417 19.0087 8.95417ZM18.992 37.3332H19.0087C19.9257 37.3332 20.6594 36.5965 20.6594 35.6756V34.0683C20.6594 33.1475 19.9257 32.4108 19.0087 32.4108H18.992C18.0749 32.4108 17.3412 33.1475 17.3412 34.0683V35.6756C17.3412 36.5965 18.0749 37.3332 18.992 37.3332ZM6.08612 31.9587C6.73642 32.6117 7.7869 32.6117 8.43719 31.9587L9.08749 31.3058C9.73778 30.6528 9.72111 29.598 9.08749 28.9618L9.07081 28.945C8.42052 28.2921 7.37004 28.2921 6.71974 28.945L6.06945 29.598C5.43583 30.2677 5.43583 31.3058 6.08612 31.9587Z" fill="white"/>
</symbol>
</defs>
</svg>
